<svg xmlns="http://www.w3.org/2000/svg" width="128" height="128" viewBox="0 0 24 24" fill="none" stroke="#FFFFFF" stroke-width="2" stroke-linecap="round" stroke-linejoin="round">
  <!-- Document with folded corner -->
  <path d="M14 3H7a3 3 0 0 0-3 3v12a3 3 0 0 0 3 3h10a3 3 0 0 0 3-3V9z"/>
  <polyline points="14 3 14 9 20 9"/>
  <!-- Magic wand for AI generation -->
  <line x1="8" y1="14.5" x2="16" y2="6.5"/>
  <!-- Sparkles -->
  <path d="M9 6l.5 1 .9.5-.9.5-.5 1-.5-1-.9-.5.9-.5z"/>
  <path d="M17.5 13.5l.4.8.8.4-.8.4-.4.8-.4-.8-.8-.4.8-.4z"/>
</svg>
